<?xml version="1.0" encoding="UTF-8"?>
<svg xmlns="http://www.w3.org/2000/svg" width="360" height="180" fill="none" class="wd-graphic" focusable="false" role="presentation" viewBox="0 0 360 180">
  <g class="wd-icon-container">
    <path fill="#FFDA61" d="M138 138c33.137 0 60-26.863 60-60s-26.863-60-60-60-60 26.863-60 60 26.863 60 60 60z"></path>
    <path fill="#A1AAB3" d="M170.893 53.31l3.182 5.186c1.007 1.64 2.793 4.44 4.719 4.44h59.191a5.541 5.541 0 0 1 5.539 5.539v76.524a5.54 5.54 0 0 1-5.539 5.539H118.54a5.541 5.541 0 0 1-5.54-5.539V56.206a5.542 5.542 0 0 1 5.54-5.54h47.628a5.542 5.542 0 0 1 4.725 2.643z"></path>
    <path fill="#fff" d="M238.772 68.634H122.289l-7 73.073h118.483l5-73.073z"></path>
    <path fill="#B9C0C7" d="M126.509 79.847a5.544 5.544 0 0 1 5.507-4.924h117.726c3.766 0 6.601 3.429 5.893 7.128l-12.004 62.697c-.071.372-.097.751-.135 1.127a5.543 5.543 0 0 1-5.511 4.972H118.54a5.543 5.543 0 0 1-5.506-4.924c-.045-.408.008-.818.092-1.22l13.224-63.637c.084-.401.114-.812.159-1.22z"></path>
    <path fill="#F0F1F2" d="M268 57.973a6.759 6.759 0 0 0 1.597 4.364h32.569a8.015 8.015 0 0 0-.688-4.502 8.122 8.122 0 0 0-3.037-3.421c.81-1.97.825-4.172.041-6.152a8.328 8.328 0 0 0-4.256-4.484 8.46 8.46 0 0 0-6.208-.347 8.352 8.352 0 0 0-4.739 3.982 6.481 6.481 0 0 0-6.154-.788 6.422 6.422 0 0 0-2.594 1.862 6.324 6.324 0 0 0-1.36 2.87 6.913 6.913 0 0 0-3.728 2.434A6.788 6.788 0 0 0 268 57.973zM102.424 121.172a12.72 12.72 0 0 1-3.004 8.21H38.14a15.076 15.076 0 0 1 1.296-8.471 15.275 15.275 0 0 1 5.714-6.436 15.439 15.439 0 0 1-.077-11.574 15.662 15.662 0 0 1 8.008-8.438 15.915 15.915 0 0 1 11.68-.652 15.715 15.715 0 0 1 8.916 7.492 12.154 12.154 0 0 1 5.597-2.217 12.2 12.2 0 0 1 5.982.735c1.9.741 3.578 1.946 4.88 3.503a11.9 11.9 0 0 1 2.56 5.4 13.005 13.005 0 0 1 7.013 4.58 12.766 12.766 0 0 1 2.715 7.868zM223.736 144.173a29.213 29.213 0 0 0-9.581 6.793A29.392 29.392 0 0 0 208 161h112a16.774 16.774 0 0 0-5.345-10.701 16.592 16.592 0 0 0-11.085-4.372c.757-4.633.395-9.38-1.053-13.843a29.342 29.342 0 0 0-7.271-11.801 29.099 29.099 0 0 0-11.856-7.11 28.968 28.968 0 0 0-13.78-.824 29.306 29.306 0 0 0-6.949-11.58 29.089 29.089 0 0 0-11.384-7.203 28.952 28.952 0 0 0-13.387-1.289 29.009 29.009 0 0 0-12.535 4.9 29.225 29.225 0 0 0-9.008 10.045 29.424 29.424 0 0 0-.906 26.304 29.255 29.255 0 0 0 8.295 10.647zM54 50c5.523 0 10-4.477 10-10s-4.477-10-10-10-10 4.477-10 10 4.477 10 10 10z"></path>
  </g>
</svg>
