<?xml version="1.0" encoding="UTF-8"?>
<svg xmlns="http://www.w3.org/2000/svg" width="360" height="180" fill="none" class="wd-graphic" focusable="false" role="presentation" viewBox="0 0 360 180">
  <g class="wd-icon-container">
    <path fill="#F0F1F2" d="M309.5 136c5.799 0 10.5-4.701 10.5-10.5s-4.701-10.5-10.5-10.5-10.5 4.701-10.5 10.5 4.701 10.5 10.5 10.5zM92.5 44a9.5 9.5 0 1 0 0-19 9.5 9.5 0 0 0 0 19zM233.947 64.517a20.334 20.334 0 0 1-.027-1.05C233.92 52.715 242.418 44 252.9 44c7.044 0 13.192 3.936 16.467 9.78a15.725 15.725 0 0 1 6.153-1.247c7.452 0 13.724 5.187 15.569 12.233 5.715 1.62 9.911 6.991 9.911 13.367C301 85.792 294.947 92 287.48 92h-50.96C229.053 92 223 85.792 223 78.133c0-6.756 4.711-12.383 10.947-13.616z"></path>
    <path fill="#CED3D9" fill-rule="evenodd" d="M218.899 104.101a6 6 0 0 1 8.486 0l37.514 37.514a5.998 5.998 0 0 1 0 8.485l-5.656 5.657a6.001 6.001 0 0 1-8.486 0l-37.514-37.514a6 6 0 0 1 0-8.486l5.656-5.656z" clip-rule="evenodd"></path>
    <path fill="#A1AAB3" fill-rule="evenodd" d="M232.142 108.858l31.629 31.629-14.142 14.142L218 123l14.142-14.142z" clip-rule="evenodd"></path>
    <path fill="#DFE2E6" d="M140.402 32.206c21.869-21.87 57.327-21.87 79.196 0s21.869 57.327 0 79.196c-21.869 21.87-57.327 21.87-79.196 0s-21.869-57.326 0-79.196z"></path>
    <path stroke="#7B858F" stroke-width="15" d="M145.705 37.51c18.941-18.94 49.649-18.94 68.59 0 18.94 18.94 18.94 49.649 0 68.589-18.941 18.94-49.649 18.94-68.59 0-18.94-18.94-18.94-49.65 0-68.59z"></path>
    <path fill="#fff" d="M150 71.5c4.805-11.471 16.948-21.5 30.102-21.5s25.297 10.03 30.102 21.5C205.399 82.971 193.256 93 180.102 93S154.805 82.97 150 71.5z"></path>
    <circle cx="180.5" cy="71.5" r="16.5" fill="#B9C0C7"></circle>
    <circle cx="180" cy="72" r="7" fill="#7B858F"></circle>
    <circle cx="187" cy="67" r="4" fill="#fff"></circle>
    <path fill="#F0F1F2" d="M165 132.204c.004 5.773-1.911 11.364-5.409 15.796H49.253a30.78 30.78 0 0 1 2.332-16.297c2.237-5.085 5.809-9.383 10.29-12.383a31.6 31.6 0 0 1-.14-22.27c2.659-7.167 7.82-12.98 14.419-16.235 6.598-3.256 14.127-3.705 21.03-1.256 6.903 2.45 12.651 7.611 16.055 14.416 2.964-2.299 6.431-3.766 10.077-4.265a20.669 20.669 0 0 1 10.772 1.414c3.42 1.426 6.443 3.745 8.785 6.74 2.343 2.996 3.929 6.571 4.611 10.39 5.016 1.378 9.457 4.477 12.627 8.812 3.171 4.334 4.89 9.659 4.889 15.138z"></path>
  </g>
</svg>
